<svg width="32" height="32" viewBox="0 0 32 32" fill="none" xmlns="http://www.w3.org/2000/svg">
<rect x="2" y="2" width="28" height="28" rx="2" fill="#1A1700"/>
<path d="M25.2157 12.1107L23.8605 14.1969C24.514 15.531 24.834 17.0102 24.7917 18.502C24.7494 19.9938 24.3461 21.4516 23.6181 22.7446H8.34719C7.40094 21.0645 7.00884 19.117 7.22903 17.1909C7.44922 15.2648 8.26997 13.4625 9.56961 12.0514C10.8693 10.6402 12.5786 9.69523 14.4442 9.35654C16.3099 9.01784 18.2325 9.30347 19.9271 10.1711L21.9654 8.78402C19.8901 7.42203 17.4285 6.81172 14.9744 7.05071C12.5202 7.2897 10.2152 8.36418 8.42817 10.1023C6.64111 11.8404 5.47521 14.1417 5.11697 16.6381C4.75873 19.1344 5.22884 21.6817 6.45211 23.8723C6.64438 24.2132 6.92047 24.4966 7.25293 24.6944C7.58538 24.8923 7.96264 24.9976 8.34719 25H23.6071C23.9954 25.0016 24.3772 24.8981 24.7138 24.7001C25.0505 24.502 25.33 24.2165 25.5242 23.8723C26.5394 22.0724 27.0488 20.0205 26.9963 17.9429C26.9438 15.8654 26.3314 13.8431 25.2267 12.0994L25.2157 12.1107ZM14.4291 19.824C14.6338 20.0336 14.8768 20.2 15.1443 20.3135C15.4118 20.427 15.6986 20.4854 15.9881 20.4854C16.2777 20.4854 16.5645 20.427 16.832 20.3135C17.0995 20.2 17.3425 20.0336 17.5472 19.824L23.7833 10.25L14.4291 16.6326C14.2242 16.8421 14.0617 17.0908 13.9508 17.3646C13.8399 17.6384 13.7828 17.9319 13.7828 18.2283C13.7828 18.5247 13.8399 18.8182 13.9508 19.092C14.0617 19.3658 14.2242 19.6145 14.4291 19.824Z" fill="url(#paint0_linear_4_2)"/>
<defs>
<linearGradient id="paint0_linear_4_2" x1="16" y1="7" x2="16" y2="25" gradientUnits="userSpaceOnUse">
<stop stop-color="#85AE00"/>
<stop offset="1" stop-color="#766C00"/>
</linearGradient>
</defs>
</svg>
